<svg width="20" height="20" viewBox="0 0 20 20" fill="none" xmlns="http://www.w3.org/2000/svg">
<path d="M10.0001 1.87503C8.39315 1.87503 6.82227 2.35155 5.48612 3.24434C4.14997 4.13713 3.10857 5.40608 2.4936 6.89073C1.87864 8.37538 1.71774 10.009 2.03125 11.5851C2.34475 13.1612 3.11858 14.609 4.25488 15.7453C5.39118 16.8816 6.83892 17.6554 8.41502 17.9689C9.99111 18.2824 11.6248 18.1215 13.1094 17.5066C14.5941 16.8916 15.863 15.8502 16.7558 14.514C17.6486 13.1779 18.1251 11.607 18.1251 10C18.1226 7.84591 17.2658 5.78073 15.7426 4.25754C14.2194 2.73434 12.1542 1.87752 10.0001 1.87503ZM14.3751 10.625H10.0001C9.91804 10.6251 9.83674 10.6089 9.76089 10.5776C9.68504 10.5462 9.61612 10.5001 9.55808 10.4421C9.50003 10.384 9.454 10.3151 9.42261 10.2393C9.39121 10.1634 9.37508 10.0821 9.37513 10V5.62503C9.37513 5.45927 9.44097 5.3003 9.55818 5.18309C9.67539 5.06588 9.83437 5.00003 10.0001 5.00003C10.1659 5.00003 10.3249 5.06588 10.4421 5.18309C10.5593 5.3003 10.6251 5.45927 10.6251 5.62503V9.37503H14.3751C14.5409 9.37503 14.6999 9.44088 14.8171 9.55809C14.9343 9.6753 15.0001 9.83427 15.0001 10C15.0001 10.1658 14.9343 10.3248 14.8171 10.442C14.6999 10.5592 14.5409 10.625 14.3751 10.625Z" fill="white"/>
</svg>
