<svg width="20" height="20" viewBox="0 0 20 20" fill="none" xmlns="http://www.w3.org/2000/svg">
<path d="M9.99939 1.24951C8.17669 1.25167 6.42926 1.9767 5.14042 3.26554C3.85158 4.55439 3.12655 6.30181 3.12439 8.12451C3.12439 14.0071 9.37439 18.4504 9.6405 18.6366C9.74575 18.7101 9.87102 18.7495 9.99939 18.7495C10.1278 18.7495 10.253 18.7101 10.3583 18.6366C10.6244 18.4504 16.8744 14.0071 16.8744 8.12451C16.8722 6.30181 16.1472 4.55439 14.8584 3.26554C13.5695 1.9767 11.8221 1.25167 9.99939 1.24951ZM9.99985 5.62474C10.4943 5.62474 10.9777 5.77136 11.3888 6.04606C11.7999 6.32077 12.1203 6.71121 12.3095 7.16803C12.4988 7.62484 12.5483 8.12751 12.4518 8.61246C12.3553 9.09742 12.1172 9.54287 11.7676 9.89251C11.418 10.2421 10.9725 10.4802 10.4876 10.5767C10.0026 10.6732 9.49995 10.6237 9.04314 10.4344C8.58632 10.2452 8.19588 9.92479 7.92117 9.51366C7.64647 9.10254 7.49985 8.61919 7.49985 8.12474C7.49984 7.79643 7.5645 7.47134 7.69013 7.16802C7.81576 6.8647 7.99991 6.5891 8.23206 6.35695C8.46421 6.1248 8.73981 5.94065 9.04313 5.81502C9.34645 5.68939 9.67154 5.62473 9.99985 5.62474Z" fill="#212D5F"/>
</svg>
